<mxfile host="app.diagrams.net" modified="2022-02-17T07:50:29.816Z" agent="5.0 (Windows NT 10.0; Win64; x64) AppleWebKit/537.36 (KHTML, like Gecko) Chrome/96.0.4664.45 Safari/537.36" etag="mFav6uMVwPPoDsDtxtQX" version="16.5.6" type="github">
  <diagram id="GWXwdRzhADtxgMUi1JtR" name="Page-1">
    <mxGraphModel dx="1038" dy="515" grid="1" gridSize="10" guides="1" tooltips="1" connect="1" arrows="1" fold="1" page="1" pageScale="1" pageWidth="827" pageHeight="1169" math="0" shadow="0">
      <root>
        <mxCell id="0" />
        <mxCell id="1" parent="0" />
        <mxCell id="_r5EK1MU1sbvii6KuYAE-47" value="" style="rounded=1;whiteSpace=wrap;html=1;" vertex="1" parent="1">
          <mxGeometry x="42" y="351" width="155" height="119" as="geometry" />
        </mxCell>
        <mxCell id="_r5EK1MU1sbvii6KuYAE-3" value="" style="rounded=1;whiteSpace=wrap;html=1;" vertex="1" parent="1">
          <mxGeometry x="20" y="220" width="210" height="70" as="geometry" />
        </mxCell>
        <mxCell id="_r5EK1MU1sbvii6KuYAE-9" value="" style="rounded=1;whiteSpace=wrap;html=1;" vertex="1" parent="1">
          <mxGeometry x="280" y="219" width="210" height="70" as="geometry" />
        </mxCell>
        <mxCell id="_r5EK1MU1sbvii6KuYAE-13" value="" style="fontColor=#0066CC;verticalAlign=top;verticalLabelPosition=bottom;labelPosition=center;align=center;html=1;outlineConnect=0;fillColor=#CCCCCC;strokeColor=#6881B3;gradientColor=none;gradientDirection=north;strokeWidth=2;shape=mxgraph.networks.security_camera;" vertex="1" parent="1">
          <mxGeometry x="70" y="361" width="50" height="50" as="geometry" />
        </mxCell>
        <mxCell id="_r5EK1MU1sbvii6KuYAE-14" value="" style="fontColor=#0066CC;verticalAlign=top;verticalLabelPosition=bottom;labelPosition=center;align=center;html=1;outlineConnect=0;fillColor=#CCCCCC;strokeColor=#6881B3;gradientColor=none;gradientDirection=north;strokeWidth=2;shape=mxgraph.networks.security_camera;" vertex="1" parent="1">
          <mxGeometry x="130" y="361" width="50" height="50" as="geometry" />
        </mxCell>
        <mxCell id="_r5EK1MU1sbvii6KuYAE-15" value="" style="fontColor=#0066CC;verticalAlign=top;verticalLabelPosition=bottom;labelPosition=center;align=center;html=1;outlineConnect=0;fillColor=#CCCCCC;strokeColor=#6881B3;gradientColor=none;gradientDirection=north;strokeWidth=2;shape=mxgraph.networks.security_camera;" vertex="1" parent="1">
          <mxGeometry x="100" y="411" width="50" height="50" as="geometry" />
        </mxCell>
        <mxCell id="_r5EK1MU1sbvii6KuYAE-16" value="原始数据" style="text;html=1;strokeColor=none;fillColor=none;align=center;verticalAlign=middle;whiteSpace=wrap;rounded=0;fontStyle=1" vertex="1" parent="1">
          <mxGeometry x="20" y="190" width="60" height="30" as="geometry" />
        </mxCell>
        <mxCell id="_r5EK1MU1sbvii6KuYAE-17" value="制成品数据" style="text;html=1;strokeColor=none;fillColor=none;align=center;verticalAlign=middle;whiteSpace=wrap;rounded=0;fontStyle=1" vertex="1" parent="1">
          <mxGeometry x="280" y="190" width="70" height="30" as="geometry" />
        </mxCell>
        <mxCell id="_r5EK1MU1sbvii6KuYAE-24" value="" style="rounded=1;whiteSpace=wrap;html=1;" vertex="1" parent="1">
          <mxGeometry x="550" y="219" width="210" height="70" as="geometry" />
        </mxCell>
        <mxCell id="_r5EK1MU1sbvii6KuYAE-28" value="产品数据" style="text;html=1;strokeColor=none;fillColor=none;align=center;verticalAlign=middle;whiteSpace=wrap;rounded=0;fontStyle=1" vertex="1" parent="1">
          <mxGeometry x="550" y="189" width="60" height="30" as="geometry" />
        </mxCell>
        <mxCell id="_r5EK1MU1sbvii6KuYAE-29" value="" style="image;html=1;image=img/lib/clip_art/finance/Pie_Chart_128x128.png" vertex="1" parent="1">
          <mxGeometry x="620" y="79" width="50" height="50" as="geometry" />
        </mxCell>
        <mxCell id="_r5EK1MU1sbvii6KuYAE-30" value="" style="outlineConnect=0;dashed=0;verticalLabelPosition=bottom;verticalAlign=top;align=center;html=1;shape=mxgraph.aws3.workspaces;fillColor=#D16A28;gradientColor=#F58435;gradientDirection=north;" vertex="1" parent="1">
          <mxGeometry x="540" y="80" width="50" height="50" as="geometry" />
        </mxCell>
        <mxCell id="_r5EK1MU1sbvii6KuYAE-31" value="应用(抓拍、监控...)" style="text;html=1;strokeColor=none;fillColor=none;align=center;verticalAlign=middle;whiteSpace=wrap;rounded=0;fontStyle=1" vertex="1" parent="1">
          <mxGeometry x="470" y="49" width="130" height="30" as="geometry" />
        </mxCell>
        <mxCell id="_r5EK1MU1sbvii6KuYAE-32" value="统计可视化" style="text;html=1;strokeColor=none;fillColor=none;align=center;verticalAlign=middle;whiteSpace=wrap;rounded=0;fontStyle=1" vertex="1" parent="1">
          <mxGeometry x="580" y="49" width="130" height="30" as="geometry" />
        </mxCell>
        <mxCell id="_r5EK1MU1sbvii6KuYAE-33" value="" style="image;html=1;image=img/lib/clip_art/general/Earth_globe_128x128.png" vertex="1" parent="1">
          <mxGeometry x="705" y="79" width="50" height="50" as="geometry" />
        </mxCell>
        <mxCell id="_r5EK1MU1sbvii6KuYAE-35" value="cesium" style="text;html=1;strokeColor=none;fillColor=none;align=center;verticalAlign=middle;whiteSpace=wrap;rounded=0;fontStyle=1" vertex="1" parent="1">
          <mxGeometry x="665" y="49" width="130" height="30" as="geometry" />
        </mxCell>
        <mxCell id="_r5EK1MU1sbvii6KuYAE-37" value="" style="sketch=0;aspect=fixed;html=1;points=[];align=center;image;fontSize=12;image=img/lib/mscae/Data_Lake.svg;" vertex="1" parent="1">
          <mxGeometry x="42" y="229" width="38" height="50" as="geometry" />
        </mxCell>
        <mxCell id="_r5EK1MU1sbvii6KuYAE-38" value="" style="sketch=0;aspect=fixed;html=1;points=[];align=center;image;fontSize=12;image=img/lib/mscae/Data_Lake.svg;" vertex="1" parent="1">
          <mxGeometry x="106" y="230" width="38" height="50" as="geometry" />
        </mxCell>
        <mxCell id="_r5EK1MU1sbvii6KuYAE-39" value="" style="sketch=0;aspect=fixed;html=1;points=[];align=center;image;fontSize=12;image=img/lib/mscae/Data_Lake.svg;" vertex="1" parent="1">
          <mxGeometry x="180" y="230" width="38" height="50" as="geometry" />
        </mxCell>
        <mxCell id="_r5EK1MU1sbvii6KuYAE-41" value="" style="sketch=0;aspect=fixed;html=1;points=[];align=center;image;fontSize=12;image=img/lib/mscae/Data_Catalog.svg;" vertex="1" parent="1">
          <mxGeometry x="300" y="230" width="47" height="50" as="geometry" />
        </mxCell>
        <mxCell id="_r5EK1MU1sbvii6KuYAE-42" value="" style="sketch=0;aspect=fixed;html=1;points=[];align=center;image;fontSize=12;image=img/lib/mscae/Data_Catalog.svg;" vertex="1" parent="1">
          <mxGeometry x="361.5" y="230" width="47" height="50" as="geometry" />
        </mxCell>
        <mxCell id="_r5EK1MU1sbvii6KuYAE-43" value="" style="sketch=0;aspect=fixed;html=1;points=[];align=center;image;fontSize=12;image=img/lib/mscae/Data_Catalog.svg;" vertex="1" parent="1">
          <mxGeometry x="423" y="230" width="47" height="50" as="geometry" />
        </mxCell>
        <mxCell id="_r5EK1MU1sbvii6KuYAE-44" value="" style="sketch=0;aspect=fixed;html=1;points=[];align=center;image;fontSize=12;image=img/lib/mscae/Data_Lake_Storage.svg;" vertex="1" parent="1">
          <mxGeometry x="560" y="231" width="50" height="46" as="geometry" />
        </mxCell>
        <mxCell id="_r5EK1MU1sbvii6KuYAE-45" value="" style="sketch=0;aspect=fixed;html=1;points=[];align=center;image;fontSize=12;image=img/lib/mscae/Data_Lake_Storage.svg;" vertex="1" parent="1">
          <mxGeometry x="630" y="232" width="50" height="46" as="geometry" />
        </mxCell>
        <mxCell id="_r5EK1MU1sbvii6KuYAE-46" value="" style="sketch=0;aspect=fixed;html=1;points=[];align=center;image;fontSize=12;image=img/lib/mscae/Data_Lake_Storage.svg;" vertex="1" parent="1">
          <mxGeometry x="700" y="232" width="50" height="46" as="geometry" />
        </mxCell>
        <mxCell id="_r5EK1MU1sbvii6KuYAE-49" value="图像分析算法" style="text;html=1;strokeColor=none;fillColor=none;align=center;verticalAlign=middle;whiteSpace=wrap;rounded=0;fontStyle=1" vertex="1" parent="1">
          <mxGeometry x="199" y="60" width="81" height="31" as="geometry" />
        </mxCell>
        <mxCell id="_r5EK1MU1sbvii6KuYAE-51" value="" style="sketch=0;points=[[0,0,0],[0.25,0,0],[0.5,0,0],[0.75,0,0],[1,0,0],[0,1,0],[0.25,1,0],[0.5,1,0],[0.75,1,0],[1,1,0],[0,0.25,0],[0,0.5,0],[0,0.75,0],[1,0.25,0],[1,0.5,0],[1,0.75,0]];outlineConnect=0;fontColor=#232F3E;gradientColor=#4AB29A;gradientDirection=north;fillColor=#116D5B;strokeColor=#ffffff;dashed=0;verticalLabelPosition=bottom;verticalAlign=top;align=center;html=1;fontSize=12;fontStyle=0;aspect=fixed;shape=mxgraph.aws4.resourceIcon;resIcon=mxgraph.aws4.augmented_ai;" vertex="1" parent="1">
          <mxGeometry x="202" y="91" width="78" height="78" as="geometry" />
        </mxCell>
      </root>
    </mxGraphModel>
  </diagram>
</mxfile>
